<?xml version="1.0" encoding="utf-8"?>
<!-- Generator: Adobe Illustrator 16.0.4, SVG Export Plug-In . SVG Version: 6.00 Build 0)  -->
<!DOCTYPE svg PUBLIC "-//W3C//DTD SVG 1.1//EN" "http://www.w3.org/Graphics/SVG/1.1/DTD/svg11.dtd">
<svg version="1.1" id="Layer_1" xmlns="http://www.w3.org/2000/svg" xmlns:xlink="http://www.w3.org/1999/xlink" x="0px" y="0px"
	 width="85.854px" height="78.9px" viewBox="0 0 85.854 78.9" enable-background="new 0 0 85.854 78.9" xml:space="preserve">
<g>
	<g>
		<path d="M76.956,61.106c-1.192,0-2.327,0.239-3.366,0.663l-8.349-14.904c2.44-1.586,4.058-4.332,4.058-7.459
			c0-4.917-3.983-8.898-8.896-8.898c-1.375,0-2.671,0.32-3.833,0.877l-8.528-15.226c-0.504,0.357-1.045,0.667-1.619,0.915
			l8.561,15.283c-2.113,1.627-3.482,4.174-3.482,7.049c0,2.502,1.036,4.759,2.699,6.375l-7.644,16.095
			c-1.104-0.491-2.324-0.77-3.61-0.77c-1.047,0-2.047,0.19-2.98,0.522L31.688,45.75c1.644-1.614,2.666-3.858,2.666-6.344
			c0-2.875-1.369-5.422-3.483-7.049l8.553-15.27c-0.575-0.245-1.117-0.553-1.623-0.909l-8.517,15.206
			c-1.162-0.557-2.458-0.877-3.832-0.877c-4.914,0-8.897,3.981-8.897,8.898c0,3.127,1.617,5.873,4.057,7.459L12.263,61.77
			c-1.039-0.424-2.174-0.663-3.366-0.663C3.984,61.106,0,65.089,0,70.002C0,74.92,3.984,78.9,8.897,78.9
			c4.913,0,8.897-3.98,8.897-8.898c0-3.057-1.543-5.752-3.892-7.353l8.369-14.941c0.989,0.379,2.058,0.596,3.18,0.596
			c1.749,0,3.375-0.511,4.75-1.382l8.085,15.512c-2.541,1.566-4.241,4.365-4.241,7.57c0,4.916,3.986,8.896,8.899,8.896
			c4.914,0,8.899-3.98,8.899-8.896c0-2.96-1.452-5.574-3.675-7.191l7.532-15.86c1.364,0.851,2.972,1.352,4.7,1.352
			c1.121,0,2.19-0.216,3.179-0.596l8.369,14.941c-2.349,1.601-3.892,4.296-3.892,7.353c0,4.918,3.984,8.898,8.897,8.898
			s8.897-3.98,8.897-8.898C85.854,65.089,81.869,61.106,76.956,61.106z"/>
	</g>
	<path d="M34.027,8.897c0,4.913,3.986,8.901,8.899,8.901c4.913,0,8.899-3.988,8.899-8.901S47.84,0,42.927,0
		C38.013,0,34.027,3.984,34.027,8.897z"/>
</g>
</svg>
